/* XPM */
static char *_ffef387047d45868285e824c04b947bE0FB0BH5PN3Z9LV7[] = {
/* columns rows colors chars-per-pixel */
"16 16 111 2 ",
"   c #0B0600",
".  c #060610",
"X  c #1C181A",
"o  c #383A00",
"O  c #343624",
"+  c #312D38",
"@  c #3F3D39",
"#  c #443A00",
"$  c #4E4D00",
"%  c #736D00",
"&  c #7B7500",
"*  c #57533E",
"=  c #484347",
"-  c #74716A",
";  c #7B786F",
":  c #7D787A",
">  c #827B00",
",  c #847F16",
"<  c #847F1D",
"1  c #817E62",
"2  c #8F8804",
"3  c #928A00",
"4  c #988E0A",
"5  c #9A9100",
"6  c #9D9503",
"7  c #9A9409",
"8  c #948E1C",
"9  c #A49B00",
"0  c #ABA200",
"q  c #AFA400",
"w  c #B1A700",
"e  c #B2A700",
"r  c #B4AA00",
"t  c #B4AB00",
"y  c #B6AC00",
"u  c #BBB100",
"i  c #BEB300",
"p  c #C2B700",
"a  c #C2B800",
"s  c #C4BA00",
"d  c #C6BB00",
"f  c #CABF00",
"g  c #CCC000",
"h  c #CCC100",
"j  c #D2C600",
"k  c #D5C800",
"l  c #D7CC00",
"z  c #D8CA00",
"x  c #D9CE00",
"c  c #DBD000",
"v  c #DCD100",
"b  c #DFD40F",
"n  c #DBD51D",
"m  c #E2D500",
"M  c #EADF00",
"N  c #ECDD1E",
"B  c #EDE100",
"V  c #EFE300",
"C  c #F1E300",
"Z  c #F0E400",
"A  c #F6E900",
"S  c #F9EC00",
"D  c #FBEE00",
"F  c #FCEF00",
"G  c #FDF000",
"H  c #FFF400",
"J  c #FFF600",
"K  c #FFF900",
"L  c yellow",
"P  c #F6ED15",
"I  c #F8E915",
"U  c #CDC725",
"Y  c #FCED27",
"T  c #94915C",
"R  c #A8A44F",
"E  c #AAA75E",
"W  c #BDB353",
"Q  c #B7B25E",
"!  c #B8B35F",
"~  c #89847D",
"^  c #ADA961",
"/  c #B3AC61",
"(  c #B0AC6E",
")  c #BAB66F",
"_  c #ADAA76",
"`  c #F0E859",
"'  c #97978C",
"]  c #9B9B8A",
"[  c #9D9C8D",
"{  c #ADAC83",
"}  c #ACAA84",
"|  c #ACAB89",
" . c #B5B282",
".. c #ADAC96",
"X. c #B2B196",
"o. c #A4A3A2",
"O. c #A8A8A4",
"+. c #B3B4C3",
"@. c #B7B8C6",
"#. c #B8B9C6",
"$. c #BCBDD1",
"%. c #BFC0D5",
"&. c #C0C1D2",
"*. c #C4C5D8",
"=. c #C4C6DC",
"-. c #C6C7DE",
";. c #CECFE8",
":. c #D2D3EB",
">. c #D3D5F0",
",. c #D6D8F0",
"<. c white",
/* pixels */
"<.<.<.<.<.;..._ ( X.;.<.<.<.<.<.",
"<.<.<.,.< h f e u j M 8 >.<.<.<.",
"<.<.#.q a & e C H M p x f +.<.<.",
"<.:.e 9 2 A H S D D F A 0 q :.<.",
"<., i 3 J D S S S F F A k r , <.",
"-.k % Z J D H J F F J x m r f =.",
"| d 1 L W I ] T / ] } b ' ) e | ",
"^ q - ` * N [ M L : C ~ n x i Q ",
"E e ; U   Y O 7 L = A + P M h Q ",
"{ p @ L # N o L K X V 4 . $ c  .",
"$.k > D L F L D v M x m M V m $.",
"<.2 e a F D D V k x x l V f 6 <.",
"<.*.p > H F F k x x x m p k $.<.",
"<.<.O.p q m V x v v h y k o.<.<.",
"<.<.<.$.5 x q r r e i 9 &.<.<.<.",
"<.<.<.<.<.@._ R R _ #.<.<.<.<.<."
};
