/* XPM */
static char *_59385be8e694e32865a851b24d568c8iQRSdQK4jfVCirP9[] = {
/* columns rows colors chars-per-pixel */
"32 32 163 2 ",
"   c black",
".  c #0C0800",
"X  c #120E00",
"o  c #1C1A00",
"O  c #000012",
"+  c #00001B",
"@  c #211F03",
"#  c #242203",
"$  c #2B2500",
"%  c #2C2A02",
"&  c #312E00",
"*  c #292816",
"=  c #3A391A",
"-  c #101721",
";  c #3A3D2C",
":  c #2F2F34",
">  c #26273C",
",  c #433F00",
"<  c #464200",
"1  c #4D4400",
"2  c #4F4900",
"3  c #534E00",
"4  c #565300",
"5  c #585300",
"6  c #5F5A00",
"7  c #464312",
"8  c #545112",
"9  c #625C00",
"0  c #676200",
"q  c #6F6900",
"w  c #736C00",
"e  c #777100",
"r  c #7C7500",
"t  c #7F7800",
"y  c #5D5C2A",
"u  c #454436",
"i  c #776A2C",
"p  c #68663F",
"a  c #2A2C45",
"s  c #3A3B42",
"d  c #48494C",
"f  c #4B4B50",
"g  c #737152",
"h  c #494C69",
"j  c #585968",
"k  c #5D5F7B",
"l  c #60617B",
"z  c #7B797A",
"x  c #837C00",
"c  c #8A7F2A",
"v  c #897E34",
"b  c #7F813E",
"n  c #878100",
"m  c #8C8400",
"M  c #8F8800",
"N  c #938B00",
"B  c #988F00",
"V  c #9C9400",
"C  c #A29A00",
"Z  c #A69F1E",
"A  c #ADA400",
"S  c #B1A700",
"D  c #B4AB00",
"F  c #B9AF00",
"G  c #BCB100",
"H  c #BBB900",
"J  c #868025",
"K  c #8C8232",
"L  c #8F8539",
"P  c #ABA53C",
"I  c #C4BA00",
"U  c #CBBD00",
"Y  c #D5BD08",
"T  c #C0B316",
"R  c #CDBD35",
"E  c #CDC200",
"W  c #C8C600",
"Q  c #D1C600",
"!  c #DBC600",
"~  c #D5CA00",
"^  c #D9CE00",
"/  c #D1D000",
"(  c #DDD200",
")  c #E4CB01",
"_  c #E2D600",
"`  c #EBD503",
"'  c #E6DA00",
"]  c #E9DD00",
"[  c #EDE100",
"{  c #F2E600",
"}  c #F6E900",
"|  c #F9EC00",
" . c #F1E20B",
".. c #FEF200",
"X. c #FFFD00",
"o. c #ECE31F",
"O. c #F7EB18",
"+. c #D5CA36",
"@. c #FFFF20",
"#. c #EEE73C",
"$. c #F4EC39",
"%. c #FFFF30",
"&. c #998C49",
"*. c #9D915A",
"=. c #A59745",
"-. c #A79A59",
";. c #B9AA42",
":. c #898969",
">. c #939167",
",. c #8B8A7D",
"<. c #989475",
"1. c #B2AD61",
"2. c #BDB976",
"3. c #B8C077",
"4. c #D8D144",
"5. c #DAD35D",
"6. c #F4EC43",
"7. c #F8F14C",
"8. c #EAEA55",
"9. c #F6EC50",
"0. c #D3CD69",
"q. c #C9C576",
"w. c #C5C27B",
"e. c #C8C47B",
"r. c #D2CE75",
"t. c #595D86",
"y. c #5E639A",
"u. c #696B85",
"i. c #6D6F8D",
"p. c #797B8B",
"a. c #676A91",
"s. c #6C6F9C",
"d. c #6E7190",
"f. c #727593",
"g. c #7C7D95",
"h. c #737898",
"j. c #8A8A88",
"k. c #86889B",
"l. c #A7A683",
"z. c #BDBB96",
"x. c #8E8FAC",
"c. c #9294AC",
"v. c #9C9EB4",
"b. c #9FA1BF",
"n. c #BFBCA3",
"m. c #A3A4BC",
"M. c #C3BF85",
"N. c #A4A6C3",
"B. c #ACADC5",
"V. c #B3B4CA",
"C. c #B5B6CB",
"Z. c #BEBFD4",
"A. c #BFC0D4",
"S. c #C3C4D7",
"D. c #C9CADD",
"F. c #D7D9EF",
"G. c #DBDCEF",
"H. c #DDDEF2",
"J. c #E3E4F5",
"K. c #E7E8F8",
"L. c #EDEEFE",
"P. c #F0F1FF",
"I. c #FFFFFF",
/* pixels */
"I.I.I.I.I.I.I.I.I.I.I.I.I.I.J.A.A.J.I.I.I.I.I.I.I.I.I.I.I.I.I.I.",
"I.I.I.I.I.I.I.I.I.I.D.j 7 1 q C B r 3 8 j D.I.I.I.I.I.I.I.I.I.I.",
"I.I.I.I.I.I.I.I.C.* w _ ] [ [ ' [ [ { | | n = B.I.I.I.I.I.I.I.I.",
"I.I.I.I.I.I.I.s r { ] ] Q m t m M N M ^ X.X.X.N s I.I.I.I.I.I.I.",
"I.I.I.I.I.L.o ^ ' ] V 0 0 C ( ^ | | ..G n N X.X.| @ K.I.I.I.I.I.",
"I.I.I.I.K.$ { ' I 9 x C ^ { | | | | | ......x F X.X.$ J.I.I.I.I.",
"I.I.I.I.# { ] V 6 N G ....| | | | | | | | | X.I M ] { @ I.I.I.I.",
"I.I.I.: ( ' V q V ] ..| | | | | | | | | | | | ..~ 0 [ ( : I.I.I.",
"I.I.m.m ] G 6 C ' ..| | | | | | | | | | | | | | ( I n [ m b.I.I.",
"I.I.# { ' 3 N [ ..| | | | | | | | | | | | | | ^ ^ _ m I } % I.I.",
"I.V.m ] M n F ..| | | | | | | | | | | | | | [ ~ ^ ^ ' r [ m B.I.",
"I.f ] ] 4 M [ | | | | | ......| | | ......| ~ ^ ^ ( ( N E ] d I.",
"I., [ A J 1...|  .r.O.} w.q.e.0.+.M.r.q.w.r.~ ( 5.2.5.[ r { < I.",
"P.9 [ m v s.%...Y y.7.) a.,.g y ;.:.z p.:.l.' n.u.j.u.n.t ] w L.",
"S.m [ w K f.@...) t.#.` a.9.X.X...X.-.k.| ( R i.3.' _ +.x [ A Z.",
"m.S ] w K p.z.z.<.  6.` i.M.P 4.....-.h ' _ &.d.o.^ ^ _ n | E v.",
"v.S ] 0 K p.>.p X   6.` f.    b X...-.> ] _ *.a  .~ ^ _ x X.E v.",
"S.N [ x K h.X.X.)   6.` O / X...| X.i > ] _ =.  8._ ' [ B X.D C.",
"J.q ] n L h X...Y   6.!   W ..| | X.$ a ] ( U + - Z w 4 C X.n H.",
"I., { n c   X...!   $._   / ..| | { , ; ] ^ ' T .     H V X.3 I.",
"I.u ] U e A | | ..X.| ..X...| | } ~ ] ] ^ ^ ^ ( [ { ....V X.u I.",
"I.c.A ] N m ^ ..| | | | | | | ..^ ^ ^ ^ ^ ^ ^ ^ ^ ~ X.N X.U x.I.",
"I.I.& [ I x S ..| | | | | | | ] ~ ^ ^ ^ ^ ^ ^ ^ ~ ] ..N X., I.I.",
"I.I.j.I ] n m ^ | | | | | | | ~ ^ ^ ^ ^ ^ ^ ^ ^ ^ X.w X.^ i.I.I.",
"I.I.I.o { _ q V | | | | | | _ ~ ^ ^ ^ ^ ^ ^ ^ ~ ..V ~ X.# I.I.I.",
"I.I.I.J.< { ~ 3 ] | | | | | ~ ^ ^ ^ ^ ^ ^ ^ ^ { A G X.2 H.I.I.I.",
"I.I.I.I.V.9 { ] 5 ^ ..| | ^ ^ ^ ^ ^ ^ ^ ^ _ _ w Q X.q N.I.I.I.I.",
"I.I.I.I.I.B.< } X.N n ..| _ ( ( ( ( _ _ ' N e X.X.5 b.I.I.I.I.I.",
"I.I.I.I.I.I.G.# ~ X.| N r x C U I S t t e Q X.' % F.I.I.I.I.I.I.",
"I.I.I.I.I.I.I.I.k 2 ( | [ [ I V V G ] [ { E 4 l I.I.I.I.I.I.I.I.",
"I.I.I.I.I.I.I.I.I.I.k.= 3 m G ^ ^ G M 3 = g.I.I.I.I.I.I.I.I.I.I.",
"I.I.I.I.I.I.I.I.I.I.I.I.I.S.v.g.g.v.S.I.I.I.I.I.I.I.I.I.I.I.I.I."
};
