/* XPM */
static char *d8994f0c2e4748a2ba2f0d2b2e25344aqriV9llhUsfeu5js[] = {
/* columns rows colors chars-per-pixel */
"64 64 201 2 ",
"   c #000000",
".  c #070705",
"X  c #0A0A00",
"o  c #00000A",
"O  c #110F00",
"+  c #151400",
"@  c #181600",
"#  c #1D1B00",
"$  c #010115",
"%  c #090B1C",
"&  c #141519",
"*  c #211E00",
"=  c #1F2100",
"-  c #242200",
";  c #292600",
":  c #2E2B00",
">  c #312D00",
",  c #353201",
"<  c #393600",
"1  c #3D3A00",
"2  c #0D0E22",
"3  c #171827",
"4  c #1E1F32",
"5  c #1F2031",
"6  c #222435",
"7  c #252638",
"8  c #2C2D3C",
"9  c #33333A",
"0  c #453600",
"q  c #413D00",
"w  c #464200",
"e  c #4A4500",
"r  c #4E4A00",
"t  c #524D00",
"y  c #565100",
"u  c #595400",
"i  c #5E5900",
"p  c #625D00",
"a  c #775E1E",
"s  c #676100",
"d  c #6B6500",
"f  c #6F6900",
"g  c #726C00",
"h  c #7B6C00",
"j  c #6C7900",
"k  c #7B7400",
"l  c #7F7800",
"z  c #665B23",
"x  c #383945",
"c  c #3F404A",
"v  c #42424B",
"b  c #474758",
"n  c #535359",
"m  c #53546C",
"M  c #5D5E6C",
"N  c #5D6071",
"B  c #63636F",
"V  c #73706B",
"C  c #666675",
"Z  c #6B6C76",
"A  c #6C6D7B",
"S  c #6F707C",
"D  c #737376",
"F  c #7C7373",
"G  c #74747B",
"H  c #7B7C7C",
"J  c #876800",
"K  c #837C00",
"L  c #967800",
"P  c #778500",
"I  c #878000",
"U  c #8C8500",
"Y  c #8F8800",
"T  c #9C8400",
"R  c #948C00",
"E  c #9A8D00",
"W  c #979000",
"Q  c #9B9300",
"!  c #9A9E1B",
"~  c #A38602",
"^  c #A09700",
"/  c #A39A00",
"(  c #A89E00",
")  c #B2960F",
"_  c #A7881B",
"`  c #ABA300",
"'  c #B0A600",
"]  c #B5AB00",
"[  c #B9AF00",
"{  c #B3AC09",
"}  c #BDB300",
"|  c #B8BC00",
" . c #999220",
".. c #AAA437",
"X. c #BBB637",
"o. c #C6AA00",
"O. c #C3B500",
"+. c #C3B900",
"@. c #C8BE00",
"#. c #D9BE01",
"$. c #CCB118",
"%. c #C1A526",
"&. c #C4A823",
"*. c #CDB12C",
"=. c #DABD20",
"-. c #CDC300",
";. c #D2C500",
":. c #DFC406",
">. c #D6CB00",
",. c #D9CE00",
"<. c #DDD200",
"1. c #E2D600",
"2. c #E7D704",
"3. c #E5DA00",
"4. c #E9DD00",
"5. c #E8D918",
"6. c #EDE100",
"7. c #ECED00",
"8. c #F2E500",
"9. c #F6E900",
"0. c #F9EC00",
"q. c #F7F305",
"w. c #FEF300",
"e. c #FFFD00",
"r. c #FFFF00",
"t. c #FFFF09",
"y. c #DDC023",
"u. c #E9DF29",
"i. c #E5D033",
"p. c #F1E72B",
"a. c #FDF62C",
"s. c #F6EB3A",
"d. c #FFFC3E",
"f. c #989151",
"g. c #A79E4A",
"h. c #B0AC46",
"j. c #BCB545",
"k. c #86996C",
"l. c #BEBA7E",
"z. c #C9B343",
"x. c #D5CF4F",
"c. c #FFFE42",
"v. c #FFFF59",
"b. c #FFFF68",
"n. c #E9ED7C",
"m. c #FFFB76",
"M. c #6A6C86",
"N. c #747583",
"B. c #777884",
"V. c #7C7C82",
"C. c #737589",
"Z. c #76798A",
"A. c #797B8C",
"S. c #847B81",
"D. c #7F8082",
"F. c #7E8193",
"G. c #828385",
"H. c #848489",
"J. c #8A8B89",
"K. c #878895",
"L. c #92939A",
"P. c #A8AD8E",
"I. c #8486A6",
"U. c #8B8CA2",
"Y. c #898CAC",
"T. c #9B9CA9",
"R. c #9697B3",
"E. c #A2A1A1",
"W. c #A5A5AA",
"Q. c #ACADAC",
"!. c #B7B7B9",
"~. c #B5B5BB",
"^. c #C6B680",
"/. c #C4C18F",
"(. c #C8C488",
"). c #DEDB9F",
"_. c #E1DD80",
"`. c #FEFA83",
"'. c #F3E891",
"]. c #C7D1AB",
"[. c #C5C4B9",
"{. c #DAD7B4",
"}. c #E1DEA5",
"|. c #DFE9BB",
" X c #E7E4A7",
".X c #FFFFAF",
"XX c #BCBCC1",
"oX c #B8B9CA",
"OX c #A8ABD5",
"+X c #BFC0C4",
"@X c #C2C2C7",
"#X c #CACAC9",
"$X c #C4C6D4",
"%X c #CECED1",
"&X c #D8D7DC",
"*X c #DDDEE1",
"=X c #E1E1E3",
"-X c #EDEDEE",
";X c #EDEDF0",
":X c #F6F6F7",
">X c white",
/* pixels */
">X>X>X>X>X>X>X>X>X>X>X>X>X>X>X>X>X>X>X>X>X>X>X>X>X>X>X>X>X>X>X>X>X>X>X>X>X>X>X>X>X>X>X>X>X>X>X>X>X>X>X>X>X>X>X>X>X>X>X>X>X>X>X>X",
">X>X>X>X>X>X>X>X>X>X>X>X>X>X>X>X>X>X>X>X>X>X>X>X>X>X>X>X!.@XA A S S @X!.>X>X>X>X>X>X>X>X>X>X>X>X>X>X>X>X>X>X>X>X>X>X>X>X>X>X>X>X",
">X>X>X>X>X>X>X>X>X>X>X>X>X>X>X>X>X>X>X>X>X>X>XXXC 2     O   y k t i O @     2 B XX>X>X>X>X>X>X>X>X>X>X>X>X>X>X>X>X>X>X>X>X>X>X>X",
">X>X>X>X>X>X>X>X>X>X>X>X>X>X>X>X>X>X>X>X#Xn     e ^ <.9.6.6.3.4.4.4.9.0.e.8.[ f @   b #X>X>X>X>X>X>X>X>X>X>X>X>X>X>X>X>X>X>X>X>X",
">X>X>X>X>X>X>X>X>X>X>X>X>X>X>X>X>X>XW.$   t ;.8.4.1.<.,.,.,.,.>.>.1.,.<.>.1.6.0.e.6.i   $ W.>X>X>X>X>X>X>X>X>X>X>X>X>X>X>X>X>X>X",
">X>X>X>X>X>X>X>X>X>X>X>X>X>X>X>X%Xo   I 6.4.<.,.,.,.,.<.,.,.<.<.1.<.<.<.,.3.1.8.6.9.e.e.`     @X>X>X>X>X>X>X>X>X>X>X>X>X>X>X>X>X",
">X>X>X>X>X>X>X>X>X>X>X>X>X>X>Xx   U 0.1.<.,.,.,.,.<.4.4.1.0.;.<.@.-.0.w.0.4.9.0.9.0.0.0.w.e.Q   x >X>X>X>X>X>X>X>X>X>X>X>X>X>X>X",
">X>X>X>X>X>X>X>X>X>X>X>X>X%X  w 6.1.<.,.,.,.<.4.<.^ y ; ; - u r f p t * e w Y 6.e.e.0.0.0.0.e.e.t   %X>X>X>X>X>X>X>X>X>X>X>X>X>X",
">X>X>X>X>X>X>X>X>X>X>X>XV.  Q 8.<.,.,.,.1.4.^ w - p K } ,.>.1.O.8.0.9.0.0.9.` t @ k 0.e.0.0.0.w.e.]   D.>X>X>X>X>X>X>X>X>X>X>X>X",
">X>X>X>X>X>X>X>X>X>X>Xn   1.3.,.,.,.<.8.U # u E ` ( ` O.1.1.1.9.0.9.0.0.0.0.w.e.e.} # u w.e.0.0.0.e.w.  v >X>X>X>X>X>X>X>X>X>X>X",
">X>X>X>X>X>X>X>X>X>X8 X 9.<.,.,.,.6.[ : g ^ W ^ ` O.>.2.8.0.0.0.0.0.0.0.0.0.9.0.0.w.e.4.; f e.w.0.0.w.w.. 8 >X>X>X>X>X>X>X>X>X>X",
">X>X>X>X>X>X>X>X>Xc X 8.,.,.,.<.6.e < Q W R ^ } 6.0.w.0.0.0.0.0.0.0.0.0.0.0.0.0.0.0.0.w.e.]   6.e.0.9.,.8.X 9 >X>X>X>X>X>X>X>X>X",
">X>X>X>X>X>X>X>XV.  9.<.,.,.1.-.@ k ^ R U ^ 4.0.w.0.0.0.0.0.0.0.0.0.0.0.0.0.0.0.0.9.0.0.9.w.e.@ E e.<.,.<.9.  V.>X>X>X>X>X>X>X>X",
">X>X>X>X>X>X>X!.  <.<.,.,.1.;.X W W R Q -.0.9.0.9.0.0.0.0.0.0.0.0.0.0.0.0.9.0.0.0.0.0.0.0.0.0.e.s d 8.,.,.<.<.  !.>X>X>X>X>X>X>X",
">X>X>X>X>X>X>X  ` 3.,.,.<.-.@ / R Y [ 6.w.0.0.0.0.0.0.0.9.0.0.0.0.0.0.0.0.0.0.0.0.0.0.0.0.0.0.0.e.f , 8.,.,.3.`   >X>X>X>X>X>X>X",
">X>X>X>X>X>X3 u 6.,.,.<.>.X / R R +.3.0.0.0.0.0.0.9.0.0.0.0.0.0.0.0.0.0.0.0.0.0.0.0.0.0.0.0.0.0.4.6.f i 6.,.,.6.u 3 >X>X>X>X>X>X",
">X>X>X>X>X!.  0.,.,.<.6.X Q R R ` 6.w.0.9.0.0.0.0.0.0.0.0.0.0.0.0.0.0.0.0.0.0.0.0.0.0.0.0.0.0.0.;.,.6.y U 3.,.,.0.  !.>X>X>X>X>X",
">X>X>X>X>X  ( 1.,.,.6.; I Q U -.8.0.0.0.0.0.0.0.0.0.0.0.0.0.0.0.9.0.0.0.9.0.0.0.0.0.0.0.0.0.0.<.,.,.,.9.+ -.<.,.<.`   >X>X>X>X>X",
">X>X>X>XG + 9.,.<.1.I u Q Y } 9.0.0.0.0.0.0.0.0.0.9.0.0.0.0.0.0.0.0.0.0.0.0.0.0.0.0.0.0.0.0.8.>.,.,.,.,.1.X 9.<.<.9.= B.>X>X>X>X",
">X>X>X>X  / <.,.<.1.X / R W 6.w.0.0.0.0.9.0.0.0.0.0.0.0.0.9.0.0.0.0.0.0.0.0.0.0.0.0.0.0.0.w.,.,.,.,.,.,.3.I g <.,.<.]   >X>X>X>X",
">X>X>XT.. 9.,.,.4.u l W Y } 0.0.0.0.0.0.0.0.0.0.0.0.0.0.0.0.0.0.0.0.0.0.0.0.9.0.9.0.0.0.0.4.>.,.,.,.,.,.,.6.# 4.,.,.8.X K.>X>X>X",
">X>X>X4 K 1.,.,.<., Q R E w.0.0.0.0.0.0.0.0.0.0.0.0.0.0.0.0.0.0.0.0.0.0.0.0.0.0.0.0.0.0.0.>.,.,.,.,.,.,.<.<.] p 3.,.1.K 6 >X>X>X",
">X>X>X  3.,.,.4.y k E R ` w.0.0.0.0.0.0.0.0.0.0.0.0.0.0.0.0.0.0.0.0.0.0.0.0.0.0.0.0.0.0.<.,.,.,.,.,.,.,.,.,.6.# 3.,.,.3.  :X>X>X",
">X>XH.; 6.,.,.3.; ^ R U 8.0.0.0.0.9.9.0.9.0.0.0.9.0.9.0.9.0.0.0.0.9.0.9.0.0.9.0.0.0.0.8.>.,.,.,.,.,.,.,.,.,.1.K U 1.,.6.: H.>X>X",
">X>X8 g 1.,.<.Q e E U ( 0.0.0.0.0.w.w.w.0.0.0.0.a.c.c.d.c.d.c.t.0.c.d.d.d.d.d.d.d.d.c.1.,.,.,.>.,.<.u.u.<.:.>.<.- 4.,.<.U 8 >X>X",
">X>X  ,.<.,.4.i U [.[.+Xp.0.0.0.w.z.OXOX'.0.w.:.I.U.U.U.U.U.Y.P.#.Y.U.I.U.U.U.U.U.U.I.{.,.,.>.2. XoXR.T.oX{.p.1.: 4.,.<.;.  >X>X",
">X-X  9.,.,.4.w Q V G C.b.9.0.0.w._ N.Z }.0.w.%.C.B.H N.Z.C   l.=.M.C.N.H H H G B.B.M.{.,.,.5.$XS H H G N.G R.m.g R 1.,.8.  -X>X",
">XXXX 6.<.<.;.< ^ F D.Z.b.9.0.0.e._ A.G }.w.w.&.C.k.L.X.j.f p x.2.h.j.j.g.B.H E.X...g.x.,.,.*XC V.D Q...f.Z.M.`.O.w 4.,.0., !.>X",
">XB.w 4.,.<.` y Q F D.B.b.0.0.0.w._ A.A.).w.w.&.C.G #Xw.w.e.e.0.0.w.0.t.y.Z.H !.e.,.<.,.,.'.D.H V |.<.<.<.1.f._.1., 4.,.e.i Z >X",
">XG e 4.<.1.k d E F D.A.v.0.0.0.e._ K.3 l.w.w.&.Z.H [.0.0.0.9.9.0.0.0.w.=.C.H H 4.,.,.,.3.M D.D.P.6.,.<.,.,.,.>.4.; 3.8.e.y N.>X",
">Xb U 1.,.1.g R E F V.B..Xm.`.`.`.^.&   (.w.w.&.Z.F #Xe.t.t.t.8.0.0.0.0.*.A.n H 1.,.,.<.o.Z.D.N._.>.,.,.,.,.,.,.4.1 4.0.e./ 7 >X",
">X6 U 1.,.4.< W R F G.H M.N.N.C.A..     (.w.w.&.Z.H W.M.m m M.n.0.0.0.w.y.S.3 k.<.,.,.,.$.Z.D.A s.,.,.,.,.,.,.,.4.: 0.0.w.Q 7 >X",
">X7 Y 1.,.3.w W R F D.D.B.B.F.b         (.0.w.&.D.J.9         m.0.0.0.w.=.K.  H.1.,.,.<.) F.D 3 s.,.,.,.,.,.,.,.6.: w.0.e.^ 7 >X",
">X5 R <.,.4.r W R F D.B.X.j. .f K 0     (.w.w.&.K.v X q 1 < , v.0.0.0.w.=.M.  J.1.<.,.<.{ K.& 7 s.,.,.,.,.,.,.,.3., e.0.w.( 6 >X",
">XA r 4.,.1.s R W F D.N.q.w.w.e.e.L     (.w.w.*.N   P e.e.e.e.9.0.0.0.0.y.8   J.1.,.,.<.o.C.    .X,.,.,.,.,.,.,.7.r w.0.e.K m >X",
">XA r 6.,.1.U R R F D.N.q.w.0.0.e.J     (.w.t.~     j e.0.0.0.0.0.0.0.w.i.%   J.1.,.,.<.2.C     k.p.>.,.,.,.4.<.e.: e.0.e.u A >X",
">XQ.@ 6.,.<.[ l W F H.N q.0.0.0.e.J     (.w.w.~     j e.0.0.0.0.0.0.0.w.~     J.1.,.,.,.3.a %     ].a.4.8.2.r | e.< e.0.e., L.>X",
">X#X  6.,.<.} 1 Q F H.  e.0.0.0.e.J     (.w.e.T     j e.0.0.0.0.0.0.0.8.T     J.1.,.,.,.<.#.b       x q >     ' w.< e.0.e.  %X>X",
">X>X  8.<.,.6.; Q S.&   9.0.0.0.e.J     /.t.e.L     j w.0.0.0.0.0.0.0.1.T     K.1.,.,.,.,.<.O.v               7.^ R w.w.e.  >X>X",
">X>X2 E <.,.4.w Q z @ w e.0.0.0.w.o., , i.w.w.#.< , | w.0.0.0.0.0.w.1.<.O.> : ! 1.,.,.,.,.<.<.1.h ;     - i w.e.e 0.0.w.} % >X>X",
">X>XC e 4.,.1.l U W Q >.9.8.0.0.9.w.e.e.w.9.0.w.e.e.w.0.0.0.0.0.0.9.>.>.<.4.6.<.,.,.,.,.<.,.,.,.3.6.6.8.4.w.w.e.- e.0.e.f M >X>X",
">X>X!.  8.,.,.<.q Q R W 6.0.0.0.0.0.0.0.0.8.0.0.0.0.0.0.9.0.0.0.0.<.,.,.,.,.,.,.,.,.,.<.,.,.,.,.,.,.,.,.,.0.w.+.f e.0.e.  !.>X>X",
">X>X>X  ] 1.,.4.k R R U <.3.0.0.0.0.0.0.0.0.0.0.0.0.0.0.0.0.0.0.4.>.,.,.,.,.,.,.,.,.,.,.,.,.,.,.,.,.,.>.9.0.e.q 0.0.w.<.  >X>X>X",
">X>X>XB q 4.,.,.1.g R R +.;.0.0.0.0.0.0.0.9.0.0.0.0.0.9.0.0.0.0.>.,.,.,.,.,.,.,.,.,.,.,.,.,.,.,.,.,.,.1.0.0.0.w e.0.e.r B >X>X>X",
">X>X>X*X  ,.<.,.1.U W R Y 9.9.4.0.0.0.0.0.0.0.0.0.0.0.0.0.0.w.3.,.,.,.,.,.,.,.,.,.,.,.,.,.,.,.,.,.,.;.0.0.e.e 6.0.0.e.  *X>X>X>X",
">X>X>X>X7 f 3.,.<.[ g R U [ 9.w.0.0.0.0.0.0.0.0.0.0.0.0.0.0.9.;.,.,.,.,.,.,.,.,.,.,.,.,.,.,.,.,.,.,.1.0.w.<.q e.0.e.k 7 >X>X>X>X",
">X>X>X>X*X# 4.,.,.3.g E R W 4.6.0.0.0.0.0.0.0.0.0.0.0.9.0.w.<.,.,.,.,.,.,.,.,.,.,.,.,.,.,.,.,.,.,.>.0.0.e.. e.0.0.e.  =X>X>X>X>X",
">X>X>X>X>Xb i 4.,.<.<.i Q R ( <.w.0.0.0.0.0.9.0.0.0.0.0.0.6.;.,.,.,.,.,.,.,.,.,.,.,.,.,.,.,.,.,.;.4.w.e.p ' e.0.e.q x >X>X>X>X>X",
">X>X>X>X>X>X  +.<.,.<.+.r Q U ' 9.0.0.0.0.0.0.0.9.0.0.0.0.,.,.,.,.,.,.,.,.,.,.,.,.,.,.,.,.,.,.,.,.0.e.] < e.0.w.,.  >X>X>X>X>X>X",
">X>X>X>X>X>XW.  8.,.,.1.[ t ^ ] 4.9.0.0.0.0.0.0.0.0.0.0.4.>.,.,.,.,.,.,.,.,.,.,.,.,.,.,.,.,.,.;.6.e.,.# e.0.w.e.  L.>X>X>X>X>X>X",
">X>X>X>X>X>X>Xv * 0.,.,.4.l * [ ;.8.9.0.0.0.0.0.0.0.0.0.;.,.,.,.,.,.,.,.,.,.,.,.,.,.,.,.<.,.,.,.e.,.  e.0.0.e., 8 >X>X>X>X>X>X>X",
">X>X>X>X>X>X>X>Xo l 4.,.,.8.U q ,.4.0.0.0.0.0.0.9.0.w.<.,.,.,.,.,.,.,.,.,.,.,.,.,.,.,.,.,.,.,.w.>.# e.0.0.e.g o >X>X>X>X>X>X>X>X",
">X>X>X>X>X>X>X>X>X  ` 4.,.,.w.` O } 4.9.0.0.0.0.0.0.6.;.,.,.,.,.,.,.,.,.,.,.,.,.,.,.,.,.,.<.9.K ; e.w.0.e./   >X>X>X>X>X>X>X>X>X",
">X>X>X>X>X>X>X>X>X-X  Y 6.,.,.6.6.X Y 9.6.0.0.0.0.w.<.,.,.,.,.,.,.,.,.,.,.,.,.,.,.,.,.,.4.<.# I e.0.0.e.(   -X>X>X>X>X>X>X>X>X>X",
">X>X>X>X>X>X>X>X>X>X-X  s 9.,.1.4.e.p : >.e.w.0.0.4.,.,.,.,.,.,.,.,.,.,.<.,.,.,.,.<.<.9.f # 3.e.0.0.e.K   -X>X>X>X>X>X>X>X>X>X>X",
">X>X>X>X>X>X>X>X>X>X>X>Xo 1 6.4.1.6.w.4.1 1 ,.e.w.<.,.,.<.,.,.,.,.,.,.,.,.,.,.<.6.1.K = R e.w.0.w.e.w o ;X>X>X>X>X>X>X>X>X>X>X>X",
">X>X>X>X>X>X>X>X>X>X>X>X>X8   -.0.8.4.8.e.3.u @ k @.4.6.3.1.<.<.<.<.<.3.6.6.4.Q : - R 4.6.0.0.e.0.  8 >X>X>X>X>X>X>X>X>X>X>X>X>X",
">X>X>X>X>X>X>X>X>X>X>X>X>X>XL.  p e.9.6.4.4.w.e.W r ; : u k [ ] ' [ W k > = = k >.6.<.,.0.e.e.g   L.>X>X>X>X>X>X>X>X>X>X>X>X>X>X",
">X>X>X>X>X>X>X>X>X>X>X>X>X>X>X:X6   [ w.w.6.9.<.<.4.4.3.} ^ p p s i Y Q 1.1.6.1.<.,.,.9.e.(   4 :X>X>X>X>X>X>X>X>X>X>X>X>X>X>X>X",
">X>X>X>X>X>X>X>X>X>X>X>X>X>X>X>X>X+X$   U 0.w.<.<.,.,.<.<.<.1.3.1.1.1.<.<.,.,.<.1.6.>.U   $ XX>X>X>X>X>X>X>X>X>X>X>X>X>X>X>X>X>X",
">X>X>X>X>X>X>X>X>X>X>X>X>X>X>X>X>X>X>X@X8   # U ,.8.4.3.1.<.<.<.<.<.1.1.3.6.8.,.U #   8 !.>X>X>X>X>X>X>X>X>X>X>X>X>X>X>X>X>X>X>X",
">X>X>X>X>X>X>X>X>X>X>X>X>X>X>X>X>X>X>X>X>X>XK.6     > i R Q ;.-.-.;.^ U i :     6 K.>X>X>X>X>X>X>X>X>X>X>X>X>X>X>X>X>X>X>X>X>X>X",
">X>X>X>X>X>X>X>X>X>X>X>X>X>X>X>X>X>X>X>X>X>X>X>X>X&XL.M 6 6         6 6 M L.&X>X>X>X>X>X>X>X>X>X>X>X>X>X>X>X>X>X>X>X>X>X>X>X>X>X",
">X>X>X>X>X>X>X>X>X>X>X>X>X>X>X>X>X>X>X>X>X>X>X>X>X>X>X>X>X>X>X>X>X>X>X>X>X>X>X>X>X>X>X>X>X>X>X>X>X>X>X>X>X>X>X>X>X>X>X>X>X>X>X>X"
};
